<?xml version="1.0" encoding="UTF-8"?>
<svg height="600" width="800" xmlns="http://www.w3.org/2000/svg" xmlns:xlink="http://www.w3.org/1999/xlink">
    <g id="Notes" font-family="'LucidaGrande', 'Lucida Grande', sans-serif" font-size="13">
        <rect fill="white" height="600.0" width="800.0" x="0.0" y="0.0" />
        <g font-size="13">
            <text x="18.0" y="176.0">Small</text>
            <text x="18.0" y="376.0">Medium</text>
            <text x="18.0" y="576.0">Large</text>
        </g>
        <g font-size="9">
            <text x="250.0" y="30.0">Ultralight</text>
            <text x="450.0" y="30.0">Regular</text>
            <text x="650.0" y="30.0">Black</text>
            <text id="template-version" fill="#505050" text-anchor="end" x="785.0" y="575.0">Template v.3.0</text>
            <a href="https://wangchujiang.com/#/app">
                <text fill="#505050" text-anchor="end" x="785.0" y="590.0">https://wangchujiang.com/#/app</text>
            </a>
        </g>
    </g>
    <g id="Guides" stroke="rgb(39, 170, 225)" stroke-width="0.5">
        <path id="Capline-S" d="M18,76 l800,0" />
        <path id="H-reference" d="M85,145.755 L87.685,145.755 L113.369,79.287 L114.052,79.287 L114.052,76 L112.148,76 L85,145.755 Z M95.693,121.536 L130.996,121.536 L130.263,119.313 L96.474,119.313 L95.693,121.536 Z M139.15,145.755 L141.787,145.755 L114.638,76 L113.466,76 L113.466,79.287 L139.15,145.755 Z" stroke="none" />
        <path id="Baseline-S" d="M18,146 l800,0" />
        <path id="left-margin-Ultralight-S" d="M221,56 l0,110" />
        <path id="right-margin-Ultralight-S" d="M309,56 l0,110" />
        <path id="left-margin-Regular-S" d="M421,56 l0,110" />
        <path id="right-margin-Regular-S" d="M509,56 l0,110" />
        <path id="left-margin-Black-S" d="M621,56 l0,110" />
        <path id="right-margin-Black-S" d="M709,56 l0,110" />
        <path id="Capline-M" d="M18,276 l800,0" />
        <path id="Baseline-M" d="M18,346 l800,0" />
        <path id="Capline-L" d="M18,476 l800,0" />
        <path id="Baseline-L" d="M18,546 l800,0" />
    </g>
    <g id="Symbols">
        <g id="Ultralight-S">
            <path d="M294.468,93.513 C293.553,86.77 287.624,81.455 280.596,80.425 C279.41,80.251 274.917,79.618 264.51,79.618 L264.432,79.618 C254.022,79.618 251.789,80.251 250.603,80.425 C243.771,81.427 237.531,86.202 236.017,93.026 C235.289,96.386 235.211,100.112 235.346,103.529 C235.539,108.43 235.577,113.322 236.026,118.203 C236.336,121.445 236.877,124.662 237.646,127.828 C239.085,133.676 244.91,138.543 250.618,140.528 C256.728,142.599 263.299,142.942 269.596,141.521 C270.288,141.361 270.973,141.175 271.651,140.965 C273.179,140.482 274.972,139.943 276.29,138.996 C276.308,138.983 276.323,138.966 276.333,138.946 C276.344,138.926 276.35,138.904 276.35,138.882 L276.35,134.152 C276.35,134.132 276.345,134.111 276.336,134.092 C276.327,134.074 276.313,134.057 276.296,134.044 C276.28,134.032 276.261,134.023 276.24,134.018 C276.22,134.014 276.198,134.014 276.178,134.018 C272.144,134.973 268.01,135.452 263.863,135.445 C256.725,135.445 254.805,132.087 254.255,130.689 C253.814,129.481 253.533,128.221 253.421,126.941 C253.42,126.919 253.424,126.898 253.432,126.878 C253.441,126.858 253.455,126.841 253.471,126.827 C253.488,126.814 253.508,126.804 253.529,126.8 C253.55,126.795 253.572,126.796 253.593,126.801 C257.56,127.749 261.627,128.229 265.707,128.227 C266.689,128.227 267.667,128.227 268.649,128.202 C272.753,128.088 277.079,127.879 281.117,127.098 C281.217,127.078 281.318,127.061 281.404,127.035 C287.774,125.822 293.835,122.017 294.451,112.381 C294.474,112.001 294.531,108.407 294.531,108.013 C294.535,106.676 294.966,98.523 294.468,93.513 Z M284.665,117.559 L277.968,117.559 L277.968,101.298 C277.968,97.875 276.529,96.129 273.602,96.129 C270.384,96.129 268.773,98.195 268.773,102.274 L268.773,111.174 L262.116,111.174 L262.116,102.274 C262.116,98.195 260.501,96.129 257.283,96.129 C254.373,96.129 252.92,97.875 252.917,101.298 L252.917,117.559 L246.226,117.559 L246.226,100.805 C246.226,97.382 247.107,94.662 248.871,92.646 C250.69,90.635 253.076,89.602 256.037,89.602 C259.465,89.602 262.055,90.909 263.782,93.519 L265.448,96.292 L267.118,93.519 C268.845,90.909 271.435,89.602 274.857,89.602 C277.815,89.602 280.202,90.635 282.026,92.646 C283.79,94.66 284.671,97.38 284.671,100.805 L284.665,117.559 Z" />
        </g>
        <g id="Regular-S">
            <path d="M494.468,93.513 C493.553,86.77 487.624,81.455 480.596,80.425 C479.41,80.251 474.917,79.618 464.51,79.618 L464.432,79.618 C454.022,79.618 451.789,80.251 450.603,80.425 C443.771,81.427 437.531,86.202 436.017,93.026 C435.289,96.386 435.211,100.112 435.346,103.529 C435.539,108.43 435.577,113.322 436.026,118.203 C436.336,121.445 436.877,124.662 437.646,127.828 C439.085,133.676 444.91,138.543 450.618,140.528 C456.728,142.599 463.299,142.942 469.596,141.521 C470.288,141.361 470.973,141.175 471.651,140.965 C473.179,140.482 474.972,139.943 476.29,138.996 C476.308,138.983 476.323,138.966 476.333,138.946 C476.344,138.926 476.35,138.904 476.351,138.882 L476.351,134.152 C476.351,134.132 476.345,134.111 476.336,134.092 C476.327,134.074 476.313,134.057 476.296,134.044 C476.28,134.032 476.261,134.023 476.24,134.018 C476.22,134.014 476.198,134.014 476.178,134.018 C472.144,134.973 468.01,135.452 463.863,135.445 C456.725,135.445 454.805,132.087 454.255,130.689 C453.814,129.481 453.533,128.221 453.421,126.941 C453.42,126.919 453.424,126.898 453.433,126.878 C453.441,126.858 453.455,126.841 453.471,126.827 C453.488,126.814 453.508,126.804 453.529,126.8 C453.551,126.795 453.573,126.796 453.594,126.801 C457.56,127.749 461.627,128.229 465.707,128.227 C466.689,128.227 467.667,128.227 468.649,128.202 C472.753,128.088 477.079,127.879 481.117,127.098 C481.217,127.078 481.318,127.061 481.405,127.035 C487.774,125.822 493.835,122.017 494.451,112.381 C494.474,112.001 494.531,108.407 494.531,108.013 C494.535,106.676 494.966,98.523 494.468,93.513 Z M484.665,117.559 L477.968,117.559 L477.968,101.298 C477.968,97.875 476.529,96.129 473.602,96.129 C470.384,96.129 468.773,98.195 468.773,102.274 L468.773,111.174 L462.116,111.174 L462.116,102.274 C462.116,98.195 460.501,96.129 457.283,96.129 C454.373,96.129 452.92,97.875 452.917,101.298 L452.917,117.559 L446.226,117.559 L446.226,100.805 C446.226,97.382 447.107,94.662 448.871,92.646 C450.69,90.635 453.076,89.602 456.037,89.602 C459.465,89.602 462.055,90.909 463.782,93.519 L465.448,96.292 L467.118,93.519 C468.845,90.909 471.435,89.602 474.857,89.602 C477.815,89.602 480.202,90.635 482.026,92.646 C483.79,94.66 484.671,97.38 484.671,100.805 L484.665,117.559 Z" />
        </g>
        <g id="Black-S">
            <path d="M694.468,93.513 C693.553,86.77 687.624,81.455 680.596,80.425 C679.41,80.251 674.917,79.618 664.51,79.618 L664.432,79.618 C654.022,79.618 651.789,80.251 650.603,80.425 C643.771,81.427 637.531,86.202 636.017,93.026 C635.289,96.386 635.211,100.112 635.346,103.529 C635.539,108.43 635.577,113.322 636.026,118.203 C636.336,121.445 636.878,124.662 637.646,127.828 C639.085,133.676 644.91,138.543 650.618,140.528 C656.728,142.599 663.299,142.942 669.596,141.521 C670.288,141.361 670.973,141.175 671.651,140.965 C673.179,140.482 674.972,139.943 676.29,138.996 C676.308,138.983 676.323,138.966 676.333,138.946 C676.344,138.926 676.35,138.904 676.351,138.882 L676.351,134.152 C676.351,134.132 676.345,134.111 676.336,134.092 C676.327,134.074 676.313,134.057 676.296,134.044 C676.28,134.032 676.261,134.023 676.24,134.018 C676.22,134.014 676.198,134.014 676.178,134.018 C672.144,134.973 668.01,135.452 663.863,135.445 C656.725,135.445 654.805,132.087 654.255,130.689 C653.814,129.481 653.533,128.221 653.421,126.941 C653.42,126.919 653.424,126.898 653.432,126.878 C653.441,126.858 653.455,126.841 653.471,126.827 C653.488,126.814 653.508,126.804 653.529,126.8 C653.55,126.795 653.573,126.796 653.594,126.801 C657.56,127.749 661.627,128.229 665.707,128.227 C666.689,128.227 667.667,128.227 668.649,128.202 C672.753,128.088 677.079,127.879 681.117,127.098 C681.217,127.078 681.318,127.061 681.405,127.035 C687.774,125.822 693.835,122.017 694.451,112.381 C694.474,112.001 694.531,108.407 694.531,108.013 C694.535,106.676 694.966,98.523 694.468,93.513 Z M684.665,117.559 L677.968,117.559 L677.968,101.298 C677.968,97.875 676.529,96.129 673.602,96.129 C670.384,96.129 668.773,98.195 668.773,102.274 L668.773,111.174 L662.116,111.174 L662.116,102.274 C662.116,98.195 660.501,96.129 657.283,96.129 C654.373,96.129 652.92,97.875 652.917,101.298 L652.917,117.559 L646.226,117.559 L646.226,100.805 C646.226,97.382 647.107,94.662 648.871,92.646 C650.69,90.635 653.076,89.602 656.037,89.602 C659.465,89.602 662.055,90.909 663.782,93.519 L665.448,96.292 L667.118,93.519 C668.845,90.909 671.435,89.602 674.857,89.602 C677.815,89.602 680.202,90.635 682.026,92.646 C683.79,94.66 684.671,97.38 684.671,100.805 L684.665,117.559 Z" />
        </g>
    </g>
</svg>